<!-- Generated by IcoMoon.io -->
<svg version="1.1" xmlns="http://www.w3.org/2000/svg" width="32" height="32" viewBox="0 0 32 32">
<title>creativity</title>
<path d="M25.067 9.067c0-4.999-4.067-9.067-9.067-9.067s-9.067 4.067-9.067 9.067c0 2.637 1.166 5.141 3.151 6.856-0.298 0.291-0.485 0.695-0.485 1.144 0 0.411 0.161 0.783 0.416 1.067-0.256 0.284-0.416 0.655-0.416 1.067s0.161 0.783 0.416 1.067c-0.256 0.284-0.416 0.655-0.416 1.067 0 0.694 0.447 1.281 1.067 1.502v3.831c0 0.143 0.059 0.277 0.157 0.376l-0.001 0.001 4.8 4.8c0.104 0.104 0.241 0.156 0.377 0.156s0.273-0.052 0.377-0.156l4.799-4.801c0.099-0.099 0.157-0.233 0.157-0.376v-3.831c0.619-0.221 1.067-0.807 1.067-1.502 0-0.411-0.161-0.783-0.416-1.067 0.256-0.284 0.416-0.655 0.416-1.067s-0.161-0.783-0.416-1.067c0.256-0.284 0.416-0.655 0.416-1.067 0-0.449-0.187-0.853-0.485-1.144 1.985-1.715 3.151-4.219 3.151-6.856zM16 30.713l-0.846-0.846h1.692l-0.846 0.846zM17.913 28.8h-3.825l-2.050-2.051 0.763-0.508 1.304 0.869c0.179 0.119 0.412 0.119 0.591 0l1.305-0.869 1.304 0.869c0.179 0.119 0.412 0.119 0.591 0l1.305-0.869 0.763 0.509-2.050 2.050zM20.267 25.67l-0.771-0.514c-0.179-0.119-0.412-0.119-0.591 0l-1.305 0.869-1.304-0.869c-0.179-0.119-0.412-0.119-0.591 0l-1.305 0.869-1.304-0.869c-0.179-0.119-0.412-0.119-0.591 0l-0.771 0.514v-2.737h8.533v2.737zM20.8 21.867h-9.6c-0.294 0-0.533-0.239-0.533-0.533s0.239-0.533 0.533-0.533h9.6c0.294 0 0.533 0.239 0.533 0.533s-0.239 0.533-0.533 0.533zM20.8 19.733h-9.6c-0.294 0-0.533-0.239-0.533-0.533s0.239-0.533 0.533-0.533h9.6c0.294 0 0.533 0.239 0.533 0.533s-0.239 0.533-0.533 0.533zM20.8 17.6h-9.6c-0.294 0-0.533-0.239-0.533-0.533s0.239-0.533 0.533-0.533l9.604 0.001c0.292 0.002 0.529 0.239 0.529 0.532 0 0.294-0.239 0.533-0.533 0.533zM14.332 9.534c0.098 0.079 0.217 0.118 0.335 0.118s0.237-0.039 0.335-0.118c0.635-0.512 0.998-1.266 0.998-2.068 0-0.123-0.012-0.245-0.028-0.365-0.005-0.035-0.011-0.068-0.018-0.103-0.017-0.092-0.038-0.182-0.065-0.271-0.009-0.030-0.016-0.060-0.026-0.089-0.038-0.114-0.082-0.225-0.135-0.332-0.010-0.019-0.021-0.037-0.031-0.057-0.046-0.089-0.099-0.175-0.155-0.259-0.010-0.014-0.017-0.030-0.027-0.045 0.312-0.103 0.658-0.103 0.97 0-0.010 0.014-0.017 0.030-0.027 0.045-0.057 0.084-0.108 0.17-0.155 0.259-0.010 0.019-0.022 0.037-0.031 0.057-0.053 0.107-0.098 0.219-0.135 0.332-0.010 0.029-0.017 0.059-0.026 0.089-0.026 0.089-0.047 0.18-0.065 0.271-0.006 0.034-0.013 0.068-0.018 0.103-0.018 0.121-0.029 0.242-0.029 0.365 0 0.802 0.364 1.556 0.998 2.068 0.098 0.079 0.217 0.118 0.335 0.118s0.237-0.039 0.335-0.118c0.635-0.512 0.998-1.266 0.998-2.068 0-0.123-0.012-0.245-0.028-0.365-0.005-0.035-0.011-0.068-0.018-0.103-0.017-0.092-0.038-0.182-0.065-0.271-0.009-0.030-0.016-0.060-0.026-0.089-0.038-0.114-0.082-0.225-0.135-0.332-0.010-0.020-0.022-0.039-0.033-0.059-0.046-0.088-0.097-0.173-0.153-0.255-0.010-0.015-0.018-0.032-0.028-0.047 0.156-0.052 0.318-0.078 0.485-0.078 0.852 0 1.6 0.802 1.6 1.716 0 0.784-0.346 1.522-0.948 2.024l-2.060 1.717c-0.122 0.101-0.192 0.251-0.192 0.41v3.733h-2.133v-3.733c0-0.158-0.070-0.308-0.192-0.41l-2.060-1.717c-0.603-0.502-0.948-1.24-0.948-2.024 0-0.915 0.748-1.716 1.6-1.716 0.166 0 0.329 0.027 0.484 0.078-0.011 0.015-0.018 0.032-0.028 0.047-0.056 0.083-0.107 0.167-0.153 0.255-0.010 0.020-0.022 0.038-0.033 0.059-0.053 0.107-0.097 0.218-0.135 0.332-0.010 0.029-0.017 0.060-0.026 0.089-0.026 0.089-0.047 0.18-0.065 0.271-0.006 0.034-0.013 0.068-0.018 0.103-0.016 0.121-0.028 0.242-0.028 0.365 0 0.802 0.364 1.556 0.998 2.068zM14.4 7.467c0-0.106 0.015-0.21 0.036-0.313 0.005-0.025 0.011-0.050 0.017-0.074 0.026-0.1 0.058-0.198 0.103-0.291 0.004-0.007 0.008-0.014 0.012-0.021 0.028-0.055 0.065-0.105 0.099-0.157 0.034 0.052 0.071 0.102 0.099 0.157 0.003 0.007 0.008 0.013 0.012 0.020 0.045 0.093 0.077 0.191 0.103 0.291 0.006 0.025 0.012 0.049 0.017 0.074 0.021 0.103 0.036 0.207 0.036 0.313s-0.015 0.21-0.036 0.313c-0.005 0.025-0.011 0.050-0.017 0.074-0.026 0.1-0.058 0.198-0.103 0.291-0.003 0.007-0.008 0.014-0.012 0.021-0.028 0.055-0.065 0.105-0.099 0.157-0.034-0.052-0.071-0.102-0.099-0.157-0.004-0.007-0.009-0.014-0.012-0.021-0.045-0.093-0.077-0.191-0.103-0.291-0.006-0.025-0.012-0.049-0.017-0.074-0.021-0.102-0.036-0.206-0.036-0.313zM17.067 7.467c0-0.106 0.015-0.21 0.036-0.313 0.005-0.025 0.011-0.050 0.017-0.074 0.026-0.1 0.058-0.198 0.103-0.291 0.004-0.007 0.008-0.014 0.012-0.021 0.028-0.055 0.065-0.105 0.099-0.157 0.034 0.052 0.071 0.102 0.099 0.157 0.003 0.007 0.008 0.013 0.012 0.020 0.045 0.093 0.077 0.191 0.103 0.291 0.006 0.025 0.012 0.049 0.017 0.074 0.021 0.103 0.036 0.207 0.036 0.313s-0.015 0.21-0.036 0.313c-0.005 0.025-0.011 0.050-0.017 0.074-0.026 0.1-0.058 0.198-0.103 0.291-0.003 0.007-0.008 0.014-0.012 0.021-0.028 0.055-0.065 0.105-0.099 0.157-0.034-0.052-0.071-0.102-0.099-0.157-0.004-0.007-0.009-0.014-0.012-0.021-0.045-0.093-0.077-0.191-0.103-0.291-0.006-0.025-0.012-0.049-0.017-0.074-0.021-0.102-0.036-0.206-0.036-0.313zM20.788 15.467h-2.655v-3.484l1.868-1.557c0.847-0.705 1.332-1.742 1.332-2.843 0-1.508-1.221-2.783-2.667-2.783-0.474 0-0.927 0.13-1.335 0.372-0.821-0.476-1.842-0.476-2.663 0-0.408-0.242-0.862-0.372-1.335-0.372-1.445 0-2.667 1.275-2.667 2.783 0 1.101 0.485 2.138 1.332 2.844l1.868 1.556v3.484h-2.655c-2.014-1.51-3.212-3.888-3.212-6.4 0-4.411 3.589-8 8-8s8 3.589 8 8c0 2.512-1.197 4.89-3.212 6.4z"></path>
<path d="M24.156 2.291l2.133-2.133 0.754 0.754-2.133 2.133-0.754-0.754z"></path>
<path d="M24.155 15.843l0.754-0.754 2.133 2.133-0.754 0.754-2.133-2.133z"></path>
<path d="M26.667 8.533h3.2v1.067h-3.2v-1.067z"></path>
<path d="M4.956 0.911l0.754-0.754 2.133 2.133-0.754 0.754-2.133-2.133z"></path>
<path d="M4.956 17.223l2.133-2.133 0.754 0.754-2.133 2.133-0.754-0.754z"></path>
<path d="M2.133 8.533h3.2v1.067h-3.2v-1.067z"></path>
<path d="M22.4 25.6h1.067v1.067h-1.067v-1.067z"></path>
<path d="M24.533 25.6h1.067v1.067h-1.067v-1.067z"></path>
<path d="M26.667 25.6h1.067v1.067h-1.067v-1.067z"></path>
<path d="M4.267 25.6h1.067v1.067h-1.067v-1.067z"></path>
<path d="M6.4 25.6h1.067v1.067h-1.067v-1.067z"></path>
<path d="M8.533 25.6h1.067v1.067h-1.067v-1.067z"></path>
</svg>
