<!-- Generated by IcoMoon.io -->
<svg version="1.1" xmlns="http://www.w3.org/2000/svg" width="34" height="32" viewBox="0 0 34 32">
<title>research1</title>
<path d="M4.287 0.464c-1.435 0-2.602 1.173-2.602 2.608l0.031 16.153 0.006 2.082c0 1.435 1.173 2.602 2.608 2.602l8.757-0.018-0.843 4.69-2.046 0.006c-0.598 0-1.13 0.336-1.398 0.867-0.244 0.489-0.22 1.056 0.073 1.521 0.287 0.464 0.788 0.739 1.331 0.739l14.345-0.024c0.544 0 1.044-0.281 1.331-0.745s0.311-1.032 0.067-1.521c-0.269-0.531-0.806-0.861-1.398-0.861l-2.046 0.006-0.861-4.69 8.757-0.018c1.435 0 2.602-1.173 2.602-2.608l-0.006-2.082-0.031-16.153c0-1.435-1.173-2.602-2.608-2.602l-26.070 0.049zM12.678 29.631l2.082-0.006c0.287 0 0.519-0.232 0.519-0.519s-0.232-0.519-0.519-0.519h-1.46l0.843-4.69 6.424-0.012 0.861 4.69-3.542 0.006c-0.287 0-0.519 0.232-0.519 0.519s0.232 0.519 0.519 0.519l6.657-0.012c0.202 0 0.379 0.11 0.464 0.287 0.116 0.232 0.024 0.434-0.024 0.507-0.043 0.073-0.183 0.25-0.446 0.25l-14.339 0.024c-0.263 0-0.397-0.171-0.446-0.244-0.043-0.073-0.14-0.275-0.024-0.507 0.092-0.177 0.269-0.287 0.464-0.287l2.486-0.006zM2.76 21.313v-1.563l29.185-0.055v1.563c0 0.861-0.696 1.563-1.563 1.563l-26.058 0.049c-0.861 0.006-1.563-0.696-1.563-1.557v0zM2.754 18.705l-0.031-15.634c0-0.861 0.696-1.563 1.563-1.563l26.058-0.049c0.861 0 1.563 0.696 1.563 1.563l0.031 15.634-29.185 0.049zM18.895 10.858c-0.287 0-0.519 0.232-0.519 0.519 0.006 3.45 2.815 6.247 6.266 6.241s6.247-2.815 6.241-6.266c-0.006-3.45-2.815-6.247-6.266-6.241-0.287 0-0.519 0.232-0.519 0.519l0.012 5.209-5.215 0.018zM24.641 16.58c-2.699 0.006-4.928-2.052-5.191-4.678l5.185-0.012c0.287 0 0.519-0.232 0.519-0.519l-0.012-5.185c2.632 0.256 4.696 2.479 4.702 5.179 0 2.87-2.333 5.209-5.203 5.215v0zM22.528 3.035c-3.45 0.006-6.247 2.815-6.241 6.266 0 0.287 0.232 0.519 0.519 0.519l5.734-0.012c0.287 0 0.519-0.232 0.519-0.519l-0.012-5.734c0.006-0.287-0.232-0.519-0.519-0.519v0zM22.021 8.769l-4.666 0.006c0.238-2.461 2.198-4.421 4.653-4.672l0.012 4.666zM4.287 2.547c-0.287 0-0.519 0.232-0.519 0.519l0.024 14.070c0 0.287 0.232 0.519 0.519 0.519l10.424-0.018c0.287 0 0.519-0.232 0.519-0.519l-0.024-14.070c0-0.287-0.232-0.519-0.519-0.519l-10.424 0.018zM4.837 16.617l-0.024-13.026 9.38-0.018 0.024 13.026-9.38 0.018zM9.508 5.142c-0.287 0-0.519 0.232-0.519 0.519s0.232 0.519 0.519 0.519l3.127-0.006c0.287 0 0.519-0.232 0.519-0.519s-0.232-0.519-0.519-0.519l-3.127 0.006zM6.382 7.237c-0.287 0-0.519 0.232-0.519 0.519s0.232 0.519 0.519 0.519l6.253-0.012c0.287 0 0.519-0.232 0.519-0.519s-0.232-0.519-0.519-0.519l-6.253 0.012zM9.514 9.313c-0.287 0-0.519 0.232-0.519 0.519s0.232 0.519 0.519 0.519l3.127-0.006c0.287 0 0.519-0.232 0.519-0.519s-0.232-0.519-0.519-0.519l-3.127 0.006zM6.388 11.402c-0.287 0-0.519 0.232-0.519 0.519s0.232 0.519 0.519 0.519l6.253-0.012c0.287 0 0.519-0.232 0.519-0.519s-0.232-0.519-0.519-0.519l-6.253 0.012zM9.521 13.484c-0.287 0-0.519 0.232-0.519 0.519s0.232 0.519 0.519 0.519l3.127-0.006c0.287 0 0.519-0.232 0.519-0.519s-0.232-0.519-0.519-0.519l-3.127 0.006zM16.311 20.763c-0.287 0-0.519 0.232-0.519 0.519s0.232 0.519 0.519 0.519l2.082-0.006c0.287 0 0.519-0.232 0.519-0.519s-0.232-0.519-0.519-0.519l-2.082 0.006z"></path>
</svg>
