<!-- Generated by IcoMoon.io -->
<svg version="1.1" xmlns="http://www.w3.org/2000/svg" width="32" height="32" viewBox="0 0 32 32">
<title>research</title>
<path d="M30.71 2.581h-2.065c-0.285 0-0.516 0.231-0.516 0.516v13.419h3.097v-13.419c0-0.285-0.231-0.516-0.516-0.516z"></path>
<path d="M26.581 6.194h-2.065c-0.285 0-0.516 0.231-0.516 0.516v9.806h3.097v-9.806c0-0.285-0.231-0.516-0.516-0.516z"></path>
<path d="M22.452 7.742h-2.065c-0.285 0-0.516 0.231-0.516 0.516v8.258h3.097v-8.258c0-0.285-0.231-0.516-0.516-0.516z"></path>
<path d="M18.323 9.29h-2.065c-0.285 0-0.516 0.231-0.516 0.516v6.71h3.097v-6.71c0-0.285-0.231-0.516-0.516-0.516z"></path>
<path d="M15.226 16h16.516v1.032h-16.516v-1.032z"></path>
<path d="M24.516 1.422v2.19h1.032v-3.613h-3.613v1.032h1.592c-2.507 3.507-6.038 6.054-10.046 7.329-1.299-1.929-3.502-3.2-5.997-3.2-3.985 0-7.226 3.241-7.226 7.226 0 3.452 2.435 6.343 5.677 7.054v2.236h-1.032v7.742c0 1.423 1.158 2.581 2.581 2.581s2.581-1.158 2.581-2.581v-7.742h-1.032v-2.236c3.242-0.711 5.677-3.602 5.677-7.054 0-1.115-0.262-2.168-0.715-3.112 4.215-1.389 7.917-4.113 10.521-7.852zM9.032 29.419c0 0.854-0.695 1.548-1.548 1.548s-1.548-0.695-1.548-1.548v-6.71h3.097v6.71zM8 21.677h-1.032v-2.091c0.171 0.012 0.342 0.026 0.516 0.026s0.345-0.014 0.516-0.026v2.091zM13.677 12.387c0 3.415-2.778 6.194-6.194 6.194s-6.194-2.778-6.194-6.194 2.778-6.194 6.194-6.194c2.017 0 3.806 0.973 4.937 2.47-0.373 0.096-0.748 0.18-1.128 0.254-0.945-1.036-2.3-1.691-3.81-1.691-2.846 0-5.161 2.315-5.161 5.161s2.315 5.161 5.161 5.161 5.161-2.315 5.161-5.161c0-0.932-0.252-1.804-0.685-2.559 0.348-0.076 0.693-0.161 1.035-0.254 0.434 0.845 0.683 1.8 0.683 2.814zM10.874 10.037c0.465 0.668 0.739 1.477 0.739 2.35 0 2.277-1.852 4.129-4.129 4.129s-4.129-1.852-4.129-4.129 1.852-4.129 4.129-4.129c0.951 0 1.826 0.327 2.525 0.869-0.831 0.107-1.674 0.163-2.525 0.163v1.032c1.148 0 2.279-0.103 3.39-0.286z"></path>
<path d="M18.839 19.613h11.355v1.032h-11.355v-1.032z"></path>
<path d="M18.839 25.806h11.355v1.032h-11.355v-1.032z"></path>
<path d="M18.839 22.71h5.161v1.032h-5.161v-1.032z"></path>
<path d="M25.032 22.71h5.161v1.032h-5.161v-1.032z"></path>
<path d="M18.839 28.903h5.161v1.032h-5.161v-1.032z"></path>
<path d="M25.032 28.903h5.161v1.032h-5.161v-1.032z"></path>
<path d="M16.774 19.613h1.032v1.032h-1.032v-1.032z"></path>
<path d="M16.774 22.71h1.032v1.032h-1.032v-1.032z"></path>
<path d="M16.774 25.806h1.032v1.032h-1.032v-1.032z"></path>
<path d="M16.774 28.903h1.032v1.032h-1.032v-1.032z"></path>
</svg>
